<svg xmlns="http://www.w3.org/2000/svg" viewBox="0 0 400 400">
  <g
     id="config">
    <path
       fill="#253147"
       d="m 26.907877,297.5204 c 0,0 2.607,6.68 15.158,1.815 l 34.306,-9.269 c 0,0 9.943,-3.02 20.515,6.347 0,0 14.744003,10.034 13.665003,18.313 l -9.565,48.43 c 0,0 -3.111003,8.164 6.203,13.45 l 38.406,14.582 c 0,0 10.698,1.034 13.539,-7.732 l 16.703,-30.521 c 0,0 5.538,-13.315 23.447,-12.433 0,0 18.088,-1.618 24.417,8.091 l 21.9,36.482 c 0,0 3.974,9.278 15.751,3.758 l 34.019,-14.492 c 0,0 9.529,-6.284 6.616,-14.789 l -10.608,-36.886 c 0,0 -4.729,-9.943 5.16,-20.983 0,0 10.609,-17.441 25.263,-13.952 l 40.689,9.691 c 0,0 8.433,3.722 15.769,-8.199 l 13.126,-32.634 c 0,0 4.009,-11.724 -7.426,-16.829 l -33.677,-19.509 c 0,0 -9.385,-4.297 -8.864,-21.342 0,0 -2.553,-19.14 9.494,-25.748 l 33.066,-20.192 c 0,0 10.86,-4.873 6.221,-16.29 l -14.061,-31.798 c 0,0 -4.567,-12.433996 -17.962,-8.423996 l -38.406,12.235996 c 0,0 -13.252,-0.189 -21.451,-9.124996 0,0 -13.665,-13.179 -9.476,-24.471 l 8.864,-38.285 c 0,0 2.266,-11.202 -6.203,-15.278 l -39.719,-15.0639998 c 0,0 -8.54,-0.521 -11.183,6.0559998 l -22.332,39.938 c 0,0 -10.428,8.699 -24.831,5.817 0,0 -14.977,-1.42 -18.465,-5.039 0,0 -22.601,-38.136 -23.699,-40.105 0,0 -4.189,-8.6939998 -12.945,-5.2059998 l -36.374,15.2879998 c 0,0 -7.318003,4.558 -5.484003,11.116 l 12.928003,48.592 c 0,0 -2.751,11.877 -11.166003,18.402996 0,0 -14.816,10.95 -21.972,9.62 l -39.701,-9.638 c 0,0 -11.489,-4.117996 -16.02,5.861 l -14.8700004,36.572 c 0,0 -2.858,7.569 4.9990004,12.262 l 39.017,22.341 c 0,0 12.424,5.69 8.774,27.465 0,0 0.737,16.002 -15.05,24.687 -15.786,8.693 -29.38,17.423 -29.38,17.423 0,0 -8.7020004,4.189 -4.9450004,13.557 3.7580004,9.375 17.8200004,36.04 17.8200004,36.04 z m 102.883003,-69.35 c -16.416,-38.433 1.456,-82.917 39.898,-99.297 38.425,-16.433 82.889,1.456 99.288,39.898 16.416,38.442 -1.456,82.889 -39.898,99.305 -38.442,16.416 -82.908,-1.473 -99.288,-39.906 z"
       id="path2" />
    <path
       fill="#87cedb"
       d="m 386.313,518.131 c 0,0 -127.938,-3.195 -116.746,143.933 0,0 1.6,-116.743 116.746,-143.933 z"
       style="display:none" />
    <path
       fill="#87cedb"
       d="m 401.358,762.092 c 0,0 127.584,-10.033 101.256,-155.219 0,0 10.464,116.283 -101.256,155.219 z"
       style="display:none" />
  </g>
</svg>
