<svg xmlns="http://www.w3.org/2000/svg" viewBox="0 0 200 200">
  <g
     id="cliente"
     transform="matrix(6.2094264,0,0,6.2094264,-158.62283,-687.04866)"
     style="fill:#ffffff;stroke:#000000;stroke-width:1">
    <path d="m 50.875324,111.82639 c -1.036966,0 -1.880622,0.84365 -1.880622,1.88054 0,1.03711 0.843656,1.8809 1.880622,1.8809 1.036892,0 1.880548,-0.84379 1.880548,-1.8809 0,-1.03689 -0.843588,-1.88054 -1.880548,-1.88054 z"/>
    <path d="m 47.060113,124.3167 7.599939,0.0266 0.02044,-3.67145 c 0.02659,-4.77565 -7.654496,-4.99411 -7.613724,0.002 z"/>
  </g>
  <g
     id="balon"
     style="fill:#ffffff;stroke:#000000"
     transform="matrix(7.4608125,-0.00438034,0.00438034,7.4608125,-607.76574,-1041.6815)">
    <path d="m 82.77778,165.36523 7.714849,-0.0154 -0.08571,-17.16915 c -0.02384,-4.77566 -7.654496,-4.99411 -7.613724,0.002 z"/>
    <path d="m 85.448844,144.71606 -0.04925,-2.1169 c -0.04919,-2.1144 2.485673,-2.04173 2.486705,-0.014 l 0.0011,2.16186"/>
  </g>
  <path
     style="stroke:none"
     d="m 77.549001,76.890594 c 11.41862,-4.461915 22.754759,-9.419777 33.600489,-17.326155 l -3.35482,-6.498607 c 5.60008,3.162798 11.2542,6.173601 17.54063,7.405867 -2.17854,4.839441 -3.49386,11.134237 -4.12138,18.588549 l -3.35481,-6.498608 c -11.92122,4.433627 -22.955499,10.510371 -33.575699,17.354252 -0.57886,-4.641277 -3.07882,-8.937184 -6.73434,-13.025386 z"/>
</svg>
