<svg xmlns="http://www.w3.org/2000/svg" viewBox="0 0 200 200">
 
  <path
     style="fill:#000000;stroke:none"
     d="M 78.6237,137.99532 C 82.14047,105.25531 84.37311,72.097281 78.971821,36.454193 L 59.328247,36.395929 C 73.80477,26.970024 87.986025,17.226965 98.712502,3.7731838 107.54549,14.961635 120.91626,25.896388 137.90254,36.628981 l -19.64358,-0.05826 c -4.20697,33.902666 -3.39927,67.727839 -0.25035,101.516869 -11.77762,-4.37189 -25.112802,-3.73777 -39.384936,-0.0923 z"/>
  <g
     id="stock"
     transform="matrix(6.1972343,0,0,6.1972343,-470.98488,-643.11883)"
     style="fill:#ffffff;stroke:#000000;stroke-width:1">
    <g transform="translate(5.2916672,-29.104179)">
      <path d="m 82.82914,164.29753 7.663489,0.0156 -0.08571,-16.13245 c -0.02537,-4.77565 -7.654496,-4.99411 -7.613724,0.002 z"/>
      <path d="m 85.448844,144.71606 -0.04925,-2.1169 c -0.04919,-2.1144 2.485673,-2.04173 2.486705,-0.014 l 0.0011,2.16186"/>
    </g>
    <g transform="translate(0,-30.162513)">
      <path d="m 82.77778,165.36523 7.714849,-0.0154 -0.08571,-17.16915 c -0.02384,-4.77566 -7.654496,-4.99411 -7.613724,0.002 z"/>
      <path d="m 85.448844,144.71606 -0.04925,-2.1169 c -0.04919,-2.1144 2.485673,-2.04173 2.486705,-0.014 l 0.0011,2.16186"/>
    </g>
    <g transform="translate(11.112501,-30.162513)">
      <path d="m 82.77778,165.36523 7.714849,-0.0154 -0.08571,-17.16915 c -0.02384,-4.77566 -7.654496,-4.99411 -7.613724,0.002 z"/>
      <path d="m 85.448844,144.71606 -0.04925,-2.1169 c -0.04919,-2.1144 2.485673,-2.04173 2.486705,-0.014 l 0.0011,2.16186"/>
    </g>
  </g>
</svg>
