<svg xmlns="http://www.w3.org/2000/svg" viewBox="0 0 200 200">
 
  <path
     style="fill:#000000;stroke:none"
     d="m 118.74834,-87.913667 c -3.58594,32.732505 -5.88865,65.885742 -0.56269,101.54016 l 19.6434,0.0998 c -14.49641,9.39529 -28.69822,19.10836 -39.453101,32.53944 C 89.566624,35.058623 76.218991,24.095643 59.25543,13.327173 l 19.643413,0.0998 c 4.278604,-33.893725 3.542385,-67.720529 0.464876,-101.516138 11.768355,4.396769 25.104841,3.79083 39.384651,0.175528 z"/>
  <g
     id="stock"
     transform="matrix(6.1972343,0,0,6.1972343,-470.98488,-643.11883)"
     style="fill:#ffffff;stroke:#000000;stroke-width:1">
    <g transform="translate(5.2916672,-29.104179)">
      <path d="m 82.82914,164.29753 7.663489,0.0156 -0.08571,-16.13245 c -0.02537,-4.77565 -7.654496,-4.99411 -7.613724,0.002 z"/>
      <path d="m 85.448844,144.71606 -0.04925,-2.1169 c -0.04919,-2.1144 2.485673,-2.04173 2.486705,-0.014 l 0.0011,2.16186"/>
    </g>
    <g transform="translate(0,-30.162513)">
      <path d="m 82.77778,165.36523 7.714849,-0.0154 -0.08571,-17.16915 c -0.02384,-4.77566 -7.654496,-4.99411 -7.613724,0.002 z"/>
      <path d="m 85.448844,144.71606 -0.04925,-2.1169 c -0.04919,-2.1144 2.485673,-2.04173 2.486705,-0.014 l 0.0011,2.16186"/>
    </g>
    <g transform="translate(11.112501,-30.162513)">
      <path d="m 82.77778,165.36523 7.714849,-0.0154 -0.08571,-17.16915 c -0.02384,-4.77566 -7.654496,-4.99411 -7.613724,0.002 z"/>
      <path d="m 85.448844,144.71606 -0.04925,-2.1169 c -0.04919,-2.1144 2.485673,-2.04173 2.486705,-0.014 l 0.0011,2.16186"/>
    </g>
  </g>
</svg>
