<svg viewBox="0 0 200 200" xmlns="http://www.w3.org/2000/svg">
   <g
     id="stock"
     transform="matrix(6.6595794,0,0,6.6595794,-511.28008,-718.54351)"
     style="fill:#5e9172;stroke:#253147;stroke-width:0.5">
      <g transform="translate(5.2916672,-29.104179)">
         <path d="m 82.82914,164.29753 7.663489,0.0156 -0.08571,-16.13245 c -0.02537,-4.77565 -7.654496,-4.99411 -7.613724,0.002 z"/>
         <path d="m 85.448844,144.71606 -0.04925,-2.1169 c -0.04919,-2.1144 2.485673,-2.04173 2.486705,-0.014 l 0.0011,2.16186"/>
      </g>      
      <g transform="translate(0,-30.162513)">
         <path d="m 82.77778,165.36523 7.714849,-0.0154 -0.08571,-17.16915 c -0.02384,-4.77566 -7.654496,-4.99411 -7.613724,0.002 z"/>
         <path d="m 85.448844,144.71606 -0.04925,-2.1169 c -0.04919,-2.1144 2.485673,-2.04173 2.486705,-0.014 l 0.0011,2.16186"/>
      </g>    
      <g transform="translate(11.112501,-30.162513)">
         <path d="m 82.77778,165.36523 7.714849,-0.0154 -0.08571,-17.16915 c -0.02384,-4.77566 -7.654496,-4.99411 -7.613724,0.002 z"/>
         <path d="m 85.448844,144.71606 -0.04925,-2.1169 c -0.04919,-2.1144 2.485673,-2.04173 2.486705,-0.014 l 0.0011,2.16186"/>
      </g>
   </g>
</svg>
