<svg preserveAspectRatio="xMidYMid meet" viewBox="0 0 200 200" xmlns="http://www.w3.org/2000/svg" role="img">
  <g
     id="stock"
     transform="matrix(6.6595794,0,0,6.6595794,-511.28008,-718.54351)"
     style="fill:#5e9172;fill-opacity:1;stroke:#000000;stroke-opacity:1">
    <g
       id="g3024"
       transform="translate(5.2916672,-29.104179)"
       style="display:inline;fill:#5e9172;fill-opacity:1;stroke:#000000;stroke-width:0.5;stroke-miterlimit:4;stroke-dasharray:none;stroke-opacity:1">
      <path
         style="fill:#5e9172;fill-opacity:1;stroke:#000000;stroke-width:0.5;stroke-linecap:butt;stroke-linejoin:miter;stroke-miterlimit:4;stroke-dasharray:none;stroke-opacity:1"
         d="m 82.82914,164.29753 7.663489,0.0156 -0.08571,-16.13245 c -0.02537,-4.77565 -7.654496,-4.99411 -7.613724,0.002 z"
         id="path3020"
         sodipodi:nodetypes="ccssc" />
      <path
         style="fill:#5e9172;fill-opacity:1;stroke:#000000;stroke-width:0.5;stroke-linecap:butt;stroke-linejoin:miter;stroke-miterlimit:4;stroke-dasharray:none;stroke-opacity:1"
         d="m 85.448844,144.71606 -0.04925,-2.1169 c -0.04919,-2.1144 2.485673,-2.04173 2.486705,-0.014 l 0.0011,2.16186"
         id="path3022"
         sodipodi:nodetypes="cssc" />
    </g>
    <g
       id="g3002"
       transform="translate(5.2916672,-29.104179)"
       style="display:inline;fill:#5e9172;fill-opacity:1;stroke:#000000;stroke-width:0.5;stroke-miterlimit:4;stroke-dasharray:none;stroke-opacity:1">
      <path
         style="fill:#5e9172;fill-opacity:1;stroke:#000000;stroke-width:0.5;stroke-linecap:butt;stroke-linejoin:miter;stroke-miterlimit:4;stroke-dasharray:none;stroke-opacity:1"
         d="m 82.82914,164.29753 7.663489,0.0156 -0.08571,-16.13245 c -0.02537,-4.77565 -7.654496,-4.99411 -7.613724,0.002 z"
         id="path2998"
         sodipodi:nodetypes="ccssc" />
      <path
         style="fill:#5e9172;fill-opacity:1;stroke:#000000;stroke-width:0.5;stroke-linecap:butt;stroke-linejoin:miter;stroke-miterlimit:4;stroke-dasharray:none;stroke-opacity:1"
         d="m 85.448844,144.71606 -0.04925,-2.1169 c -0.04919,-2.1144 2.485673,-2.04173 2.486705,-0.014 l 0.0011,2.16186"
         id="path3000"
         sodipodi:nodetypes="cssc" />
    </g>
    <g
       id="g3010"
       transform="translate(0,-30.162513)"
       style="fill:#5e9172;fill-opacity:1;stroke:#000000;stroke-width:0.5;stroke-miterlimit:4;stroke-dasharray:none;stroke-opacity:1">
      <path
         style="fill:#5e9172;fill-opacity:1;stroke:#000000;stroke-width:0.5;stroke-linecap:butt;stroke-linejoin:miter;stroke-miterlimit:4;stroke-dasharray:none;stroke-opacity:1"
         d="m 82.77778,165.36523 7.714849,-0.0154 -0.08571,-17.16915 c -0.02384,-4.77566 -7.654496,-4.99411 -7.613724,0.002 z"
         id="path3004"
         sodipodi:nodetypes="ccssc" />
      <path
         style="fill:#5e9172;fill-opacity:1;stroke:#000000;stroke-width:0.5;stroke-linecap:butt;stroke-linejoin:miter;stroke-miterlimit:4;stroke-dasharray:none;stroke-opacity:1"
         d="m 85.448844,144.71606 -0.04925,-2.1169 c -0.04919,-2.1144 2.485673,-2.04173 2.486705,-0.014 l 0.0011,2.16186"
         id="path3006"
         sodipodi:nodetypes="cssc" />
      <path
         style="fill:#5e9172;fill-opacity:1;stroke:#000000;stroke-width:0.5;stroke-linecap:butt;stroke-linejoin:miter;stroke-miterlimit:4;stroke-dasharray:none;stroke-opacity:1"
         d="m 82.77778,165.36523 7.714849,-0.0154 -0.08571,-17.16915 c -0.02384,-4.77566 -7.654496,-4.99411 -7.613724,0.002 z"
         id="path3026"
         sodipodi:nodetypes="ccssc" />
      <path
         style="fill:#5e9172;fill-opacity:1;stroke:#000000;stroke-width:0.5;stroke-linecap:butt;stroke-linejoin:miter;stroke-miterlimit:4;stroke-dasharray:none;stroke-opacity:1"
         d="m 85.448844,144.71606 -0.04925,-2.1169 c -0.04919,-2.1144 2.485673,-2.04173 2.486705,-0.014 l 0.0011,2.16186"
         id="path3028"
         sodipodi:nodetypes="cssc" />
    </g>
    <g
       id="g3018"
       transform="translate(11.112501,-30.162513)"
       style="fill:#5e9172;fill-opacity:1;stroke:#000000;stroke-width:0.5;stroke-miterlimit:4;stroke-dasharray:none;stroke-opacity:1">
      <path
         style="fill:#5e9172;fill-opacity:1;stroke:#000000;stroke-width:0.5;stroke-linecap:butt;stroke-linejoin:miter;stroke-miterlimit:4;stroke-dasharray:none;stroke-opacity:1"
         d="m 82.77778,165.36523 7.714849,-0.0154 -0.08571,-17.16915 c -0.02384,-4.77566 -7.654496,-4.99411 -7.613724,0.002 z"
         id="path3012"
         sodipodi:nodetypes="ccssc" />
      <path
         style="fill:#5e9172;fill-opacity:1;stroke:#000000;stroke-width:0.5;stroke-linecap:butt;stroke-linejoin:miter;stroke-miterlimit:4;stroke-dasharray:none;stroke-opacity:1"
         d="m 85.448844,144.71606 -0.04925,-2.1169 c -0.04919,-2.1144 2.485673,-2.04173 2.486705,-0.014 l 0.0011,2.16186"
         id="path3014"
         sodipodi:nodetypes="cssc" />
    </g>
    <g
       id="g3034"
       transform="translate(11.112501,-30.162513)"
       style="fill:#5e9172;fill-opacity:1;stroke:#000000;stroke-width:0.5;stroke-miterlimit:4;stroke-dasharray:none;stroke-opacity:1">
      <path
         style="fill:#5e9172;fill-opacity:1;stroke:#000000;stroke-width:0.5;stroke-linecap:butt;stroke-linejoin:miter;stroke-miterlimit:4;stroke-dasharray:none;stroke-opacity:1"
         d="m 82.77778,165.36523 7.714849,-0.0154 -0.08571,-17.16915 c -0.02384,-4.77566 -7.654496,-4.99411 -7.613724,0.002 z"
         id="path3030"
         sodipodi:nodetypes="ccssc" />
      <path
         style="fill:#5e9172;fill-opacity:1;stroke:#000000;stroke-width:0.5;stroke-linecap:butt;stroke-linejoin:miter;stroke-miterlimit:4;stroke-dasharray:none;stroke-opacity:1"
         d="m 85.448844,144.71606 -0.04925,-2.1169 c -0.04919,-2.1144 2.485673,-2.04173 2.486705,-0.014 l 0.0011,2.16186"
         id="path3032"
         sodipodi:nodetypes="cssc" />
    </g>
  </g>
</svg>
