
<svg
   xmlns:dc="http://purl.org/dc/elements/1.1/"
   xmlns:cc="http://creativecommons.org/ns#"
   xmlns:rdf="http://www.w3.org/1999/02/22-rdf-syntax-ns#"
   xmlns:svg="http://www.w3.org/2000/svg"
   xmlns="http://www.w3.org/2000/svg"
   xmlns:sodipodi="http://sodipodi.sourceforge.net/DTD/sodipodi-0.dtd"
   xmlns:inkscape="http://www.inkscape.org/namespaces/inkscape"
   width="210mm"
   height="297mm"
   viewBox="0 0 200 200"
   version="1.1"
   id="svg8"
   inkscape:version="1.0.2 (1.0.2+r75+1)"
   sodipodi:docname="stock.svg">
  <defs
     id="defs2"><filter
   inkscape:collect="always"
   style="color-interpolation-filters:sRGB"
   id="filter2960"
   x="-0.0044428497"
   width="1.0054113"
   y="-0.0016440538"
   height="1.003566">
  <feGaussianBlur
     inkscape:collect="always"
     stdDeviation="0.014281631"
     id="feGaussianBlur2962" />
</filter>

	
	
	
</defs>
  <sodipodi:namedview
     id="base"
     pagecolor="#ffffff"
     bordercolor="#666666"
     borderopacity="1.0"
     inkscape:pageopacity="0.0"
     inkscape:pageshadow="2"
     inkscape:zoom="2.5104721"
     inkscape:cx="383.12003"
     inkscape:cy="522.0595"
     inkscape:document-units="mm"
     inkscape:current-layer="venta"
     inkscape:document-rotation="0"
     showgrid="false"
     inkscape:window-width="1020"
     inkscape:window-height="711"
     inkscape:window-x="0"
     inkscape:window-y="0"
     inkscape:window-maximized="0" />
  <metadata
     id="metadata5">
    <rdf:RDF>
      <cc:Work
         rdf:about="">
        <dc:format>image/svg+xml</dc:format>
        <dc:type
           rdf:resource="http://purl.org/dc/dcmitype/StillImage" />
        <dc:title></dc:title>
      </cc:Work>
    </rdf:RDF>
  </metadata>
  <g
     inkscape:label="Capa 1"
     inkscape:groupmode="layer"
     id="layer1"
     style="display:inline">
    <g
       id="g3303">
      <g
         id="g2918"
         transform="translate(5.2916672,1.0583333)"
         style="display:inline;fill:#b6d2bc;fill-opacity:1;stroke:#b6d2bc;stroke-opacity:1">
        <path
           style="fill:#b6d2bc;fill-opacity:1;stroke:#b6d2bc;stroke-width:0.264583px;stroke-linecap:butt;stroke-linejoin:miter;stroke-opacity:1"
           d="m 82.82914,164.29753 7.663489,0.0156 -0.08571,-16.13245 c -0.02537,-4.77565 -7.654496,-4.99411 -7.613724,0.002 z"
           id="path2914"
           sodipodi:nodetypes="ccssc" />
        <path
           style="fill:#b6d2bc;fill-opacity:1;stroke:#b6d2bc;stroke-width:0.264583px;stroke-linecap:butt;stroke-linejoin:miter;stroke-opacity:1"
           d="m 85.448844,144.71606 -0.04925,-2.1169 c -0.04919,-2.1144 2.485673,-2.04173 2.486705,-0.014 l 0.0011,2.16186"
           id="path2916"
           sodipodi:nodetypes="cssc" />
      </g>
      <g
         id="g2912">
        <path
           style="fill:#8cba9d;fill-opacity:1;stroke:#8cba9d;stroke-width:0.264583px;stroke-linecap:butt;stroke-linejoin:miter;stroke-opacity:1"
           d="m 82.77778,165.36523 7.714849,-0.0154 -0.08571,-17.16915 c -0.02384,-4.77566 -7.654496,-4.99411 -7.613724,0.002 z"
           id="path925"
           sodipodi:nodetypes="ccssc" />
        <path
           style="fill:#8cba9d;fill-opacity:1;stroke:#8cba9d;stroke-width:0.264583px;stroke-linecap:butt;stroke-linejoin:miter;stroke-opacity:1"
           d="m 85.448844,144.71606 -0.04925,-2.1169 c -0.04919,-2.1144 2.485673,-2.04173 2.486705,-0.014 l 0.0011,2.16186"
           id="path927"
           sodipodi:nodetypes="cssc" />
        <path
           style="display:inline;fill:#5e9172;fill-opacity:1;stroke:#5e9172;stroke-width:0.264583px;stroke-linecap:butt;stroke-linejoin:miter;stroke-opacity:1"
           d="m 87.887399,144.74702 c -2.230017,0.94089 -2.767712,1.83521 -2.774312,2.89298 l -0.111463,17.74427 -2.223844,-0.019 c 0,0 -0.02253,-11.60702 -0.01947,-17.41054 0.0019,-3.6917 4.243393,-3.64685 5.129089,-3.20771 z"
           id="path939"
           sodipodi:nodetypes="csccsc"
           inkscape:label="path939" />
      </g>
      <g
         id="g2926"
         transform="translate(11.112501)">
        <path
           style="fill:#8cba9d;fill-opacity:1;stroke:#8cba9d;stroke-width:0.264583px;stroke-linecap:butt;stroke-linejoin:miter;stroke-opacity:1"
           d="m 82.77778,165.36523 7.714849,-0.0154 -0.08571,-17.16915 c -0.02384,-4.77566 -7.654496,-4.99411 -7.613724,0.002 z"
           id="path2920"
           sodipodi:nodetypes="ccssc" />
        <path
           style="fill:#8cba9d;fill-opacity:1;stroke:#8cba9d;stroke-width:0.264583px;stroke-linecap:butt;stroke-linejoin:miter;stroke-opacity:1"
           d="m 85.448844,144.71606 -0.04925,-2.1169 c -0.04919,-2.1144 2.485673,-2.04173 2.486705,-0.014 l 0.0011,2.16186"
           id="path2922"
           sodipodi:nodetypes="cssc" />
        <path
           style="display:inline;fill:#5e9172;fill-opacity:1;stroke:#5e9172;stroke-width:0.264583px;stroke-linecap:butt;stroke-linejoin:miter;stroke-opacity:1"
           d="m 87.887399,144.74702 c -2.230017,0.94089 -2.767712,1.83521 -2.774312,2.89298 l -0.111463,17.74427 -2.223844,-0.019 c 0,0 -0.02253,-11.60702 -0.01947,-17.41054 0.0019,-3.6917 4.243393,-3.64685 5.129089,-3.20771 z"
           id="path2924"
           sodipodi:nodetypes="csccsc"
           inkscape:label="path939" />
      </g>
    </g>
    <g
       id="g3290">
      <g
         id="g2950"
         transform="translate(44.979189,1.5875)">
        <path
           style="fill:#b6d2bc;fill-opacity:1;stroke:#b6d2bc;stroke-width:0.264583px;stroke-linecap:butt;stroke-linejoin:miter;stroke-opacity:1;filter:url(#filter2960)"
           d="m 82.783448,163.80989 7.71014,0.0595 -0.08667,-15.68872 c -0.02638,-4.77565 -7.654496,-4.99411 -7.613724,0.002 z"
           id="path2944"
           sodipodi:nodetypes="ccssc" />
        <path
           style="fill:#b6d2bc;fill-opacity:1;stroke:#b6d2bc;stroke-width:0.264583px;stroke-linecap:butt;stroke-linejoin:miter;stroke-opacity:1"
           d="m 85.448844,144.71606 -0.04925,-2.1169 c -0.04919,-2.1144 2.485673,-2.04173 2.486705,-0.014 l 0.0011,2.16186"
           id="path2946"
           sodipodi:nodetypes="cssc" />
        <path
           style="display:inline;fill:#8cba8e;fill-opacity:1;stroke:#8cba8e;stroke-width:0.264583px;stroke-linecap:butt;stroke-linejoin:miter;stroke-opacity:1"
           d="m 87.887399,144.74702 c -2.230017,0.94089 -2.767712,1.83521 -2.774312,2.89298 l 0.04618,16.16189 -2.375819,0.008 c 0,0 -0.0282,-10.05176 -0.02514,-15.85528 0.0019,-3.6917 4.243393,-3.64685 5.129089,-3.20771 z"
           id="path2948"
           sodipodi:nodetypes="csccsc"
           inkscape:label="path939" />
      </g>
      <g
         id="g2942"
         transform="translate(38.629185)">
        <path
           style="fill:#8cba9d;fill-opacity:1;stroke:#8cba9d;stroke-width:0.264583px;stroke-linecap:butt;stroke-linejoin:miter;stroke-opacity:1"
           d="m 82.77778,165.36523 7.714849,-0.0154 -0.08571,-17.16915 c -0.02384,-4.77566 -7.654496,-4.99411 -7.613724,0.002 z"
           id="path2936"
           sodipodi:nodetypes="ccssc" />
        <path
           style="fill:#8cba9d;fill-opacity:1;stroke:#8cba9d;stroke-width:0.264583px;stroke-linecap:butt;stroke-linejoin:miter;stroke-opacity:1"
           d="m 85.448844,144.71606 -0.04925,-2.1169 c -0.04919,-2.1144 2.485673,-2.04173 2.486705,-0.014 l 0.0011,2.16186"
           id="path2938"
           sodipodi:nodetypes="cssc" />
        <path
           style="display:inline;fill:#5e9172;fill-opacity:1;stroke:#5e9172;stroke-width:0.264583px;stroke-linecap:butt;stroke-linejoin:miter;stroke-opacity:1"
           d="m 87.887399,144.74702 c -2.230017,0.94089 -2.767712,1.83521 -2.774312,2.89298 l -0.111463,17.74427 -2.223844,-0.019 c 0,0 -0.02253,-11.60702 -0.01947,-17.41054 0.0019,-3.6917 4.243393,-3.64685 5.129089,-3.20771 z"
           id="path2940"
           sodipodi:nodetypes="csccsc"
           inkscape:label="path939" />
      </g>
      <g
         id="g2958"
         transform="translate(51.329193)">
        <path
           style="fill:#8cba9d;fill-opacity:1;stroke:#8cba9d;stroke-width:0.264583px;stroke-linecap:butt;stroke-linejoin:miter;stroke-opacity:1"
           d="m 82.77778,165.36523 7.714849,-0.0154 -0.08571,-17.16915 c -0.02384,-4.77566 -7.654496,-4.99411 -7.613724,0.002 z"
           id="path2952"
           sodipodi:nodetypes="ccssc" />
        <path
           style="fill:#8cba9d;fill-opacity:1;stroke:#8cba9d;stroke-width:0.264583px;stroke-linecap:butt;stroke-linejoin:miter;stroke-opacity:1"
           d="m 85.448844,144.71606 -0.04925,-2.1169 c -0.04919,-2.1144 2.485673,-2.04173 2.486705,-0.014 l 0.0011,2.16186"
           id="path2954"
           sodipodi:nodetypes="cssc" />
        <path
           style="display:inline;fill:#5e9172;fill-opacity:1;stroke:#5e9172;stroke-width:0.264583px;stroke-linecap:butt;stroke-linejoin:miter;stroke-opacity:1"
           d="m 87.887399,144.74702 c -2.230017,0.94089 -2.767712,1.83521 -2.774312,2.89298 l -0.111463,17.74427 -2.223844,-0.019 c 0,0 -0.02253,-11.60702 -0.01947,-17.41054 0.0019,-3.6917 4.243393,-3.64685 5.129089,-3.20771 z"
           id="path2956"
           sodipodi:nodetypes="csccsc"
           inkscape:label="path939" />
      </g>
    </g>
    <g
       id="stock"
       inkscape:label="stock"
       transform="translate(1.7911697,0.10008121)"
       style="fill:#5e9172;fill-opacity:1;stroke:#000000;stroke-opacity:1">
      <g
         id="g3024"
         transform="translate(5.2916672,-29.104179)"
         style="display:inline;fill:#5e9172;fill-opacity:1;stroke:#000000;stroke-width:0.5;stroke-miterlimit:4;stroke-dasharray:none;stroke-opacity:1">
        <path
           style="fill:#5e9172;fill-opacity:1;stroke:#000000;stroke-width:0.5;stroke-linecap:butt;stroke-linejoin:miter;stroke-miterlimit:4;stroke-dasharray:none;stroke-opacity:1"
           d="m 82.82914,164.29753 7.663489,0.0156 -0.08571,-16.13245 c -0.02537,-4.77565 -7.654496,-4.99411 -7.613724,0.002 z"
           id="path3020"
           sodipodi:nodetypes="ccssc" />
        <path
           style="fill:#5e9172;fill-opacity:1;stroke:#000000;stroke-width:0.5;stroke-linecap:butt;stroke-linejoin:miter;stroke-miterlimit:4;stroke-dasharray:none;stroke-opacity:1"
           d="m 85.448844,144.71606 -0.04925,-2.1169 c -0.04919,-2.1144 2.485673,-2.04173 2.486705,-0.014 l 0.0011,2.16186"
           id="path3022"
           sodipodi:nodetypes="cssc" />
      </g>
      <g
         id="g3002"
         transform="translate(5.2916672,-29.104179)"
         style="display:inline;fill:#5e9172;fill-opacity:1;stroke:#000000;stroke-width:0.5;stroke-miterlimit:4;stroke-dasharray:none;stroke-opacity:1">
        <path
           style="fill:#5e9172;fill-opacity:1;stroke:#000000;stroke-width:0.5;stroke-linecap:butt;stroke-linejoin:miter;stroke-miterlimit:4;stroke-dasharray:none;stroke-opacity:1"
           d="m 82.82914,164.29753 7.663489,0.0156 -0.08571,-16.13245 c -0.02537,-4.77565 -7.654496,-4.99411 -7.613724,0.002 z"
           id="path2998"
           sodipodi:nodetypes="ccssc" />
        <path
           style="fill:#5e9172;fill-opacity:1;stroke:#000000;stroke-width:0.5;stroke-linecap:butt;stroke-linejoin:miter;stroke-miterlimit:4;stroke-dasharray:none;stroke-opacity:1"
           d="m 85.448844,144.71606 -0.04925,-2.1169 c -0.04919,-2.1144 2.485673,-2.04173 2.486705,-0.014 l 0.0011,2.16186"
           id="path3000"
           sodipodi:nodetypes="cssc" />
      </g>
      <g
         id="g3010"
         transform="translate(0,-30.162513)"
         style="fill:#5e9172;fill-opacity:1;stroke:#000000;stroke-width:0.5;stroke-miterlimit:4;stroke-dasharray:none;stroke-opacity:1">
        <path
           style="fill:#5e9172;fill-opacity:1;stroke:#000000;stroke-width:0.5;stroke-linecap:butt;stroke-linejoin:miter;stroke-miterlimit:4;stroke-dasharray:none;stroke-opacity:1"
           d="m 82.77778,165.36523 7.714849,-0.0154 -0.08571,-17.16915 c -0.02384,-4.77566 -7.654496,-4.99411 -7.613724,0.002 z"
           id="path3004"
           sodipodi:nodetypes="ccssc" />
        <path
           style="fill:#5e9172;fill-opacity:1;stroke:#000000;stroke-width:0.5;stroke-linecap:butt;stroke-linejoin:miter;stroke-miterlimit:4;stroke-dasharray:none;stroke-opacity:1"
           d="m 85.448844,144.71606 -0.04925,-2.1169 c -0.04919,-2.1144 2.485673,-2.04173 2.486705,-0.014 l 0.0011,2.16186"
           id="path3006"
           sodipodi:nodetypes="cssc" />
        <path
           style="fill:#5e9172;fill-opacity:1;stroke:#000000;stroke-width:0.5;stroke-linecap:butt;stroke-linejoin:miter;stroke-miterlimit:4;stroke-dasharray:none;stroke-opacity:1"
           d="m 82.77778,165.36523 7.714849,-0.0154 -0.08571,-17.16915 c -0.02384,-4.77566 -7.654496,-4.99411 -7.613724,0.002 z"
           id="path3026"
           sodipodi:nodetypes="ccssc" />
        <path
           style="fill:#5e9172;fill-opacity:1;stroke:#000000;stroke-width:0.5;stroke-linecap:butt;stroke-linejoin:miter;stroke-miterlimit:4;stroke-dasharray:none;stroke-opacity:1"
           d="m 85.448844,144.71606 -0.04925,-2.1169 c -0.04919,-2.1144 2.485673,-2.04173 2.486705,-0.014 l 0.0011,2.16186"
           id="path3028"
           sodipodi:nodetypes="cssc" />
      </g>
      <g
         id="g3018"
         transform="translate(11.112501,-30.162513)"
         style="fill:#5e9172;fill-opacity:1;stroke:#000000;stroke-width:0.5;stroke-miterlimit:4;stroke-dasharray:none;stroke-opacity:1">
        <path
           style="fill:#5e9172;fill-opacity:1;stroke:#000000;stroke-width:0.5;stroke-linecap:butt;stroke-linejoin:miter;stroke-miterlimit:4;stroke-dasharray:none;stroke-opacity:1"
           d="m 82.77778,165.36523 7.714849,-0.0154 -0.08571,-17.16915 c -0.02384,-4.77566 -7.654496,-4.99411 -7.613724,0.002 z"
           id="path3012"
           sodipodi:nodetypes="ccssc" />
        <path
           style="fill:#5e9172;fill-opacity:1;stroke:#000000;stroke-width:0.5;stroke-linecap:butt;stroke-linejoin:miter;stroke-miterlimit:4;stroke-dasharray:none;stroke-opacity:1"
           d="m 85.448844,144.71606 -0.04925,-2.1169 c -0.04919,-2.1144 2.485673,-2.04173 2.486705,-0.014 l 0.0011,2.16186"
           id="path3014"
           sodipodi:nodetypes="cssc" />
      </g>
      <g
         id="g3034"
         transform="translate(11.112501,-30.162513)"
         style="fill:#5e9172;fill-opacity:1;stroke:#000000;stroke-width:0.5;stroke-miterlimit:4;stroke-dasharray:none;stroke-opacity:1">
        <path
           style="fill:#5e9172;fill-opacity:1;stroke:#000000;stroke-width:0.5;stroke-linecap:butt;stroke-linejoin:miter;stroke-miterlimit:4;stroke-dasharray:none;stroke-opacity:1"
           d="m 82.77778,165.36523 7.714849,-0.0154 -0.08571,-17.16915 c -0.02384,-4.77566 -7.654496,-4.99411 -7.613724,0.002 z"
           id="path3030"
           sodipodi:nodetypes="ccssc" />
        <path
           style="fill:#5e9172;fill-opacity:1;stroke:#000000;stroke-width:0.5;stroke-linecap:butt;stroke-linejoin:miter;stroke-miterlimit:4;stroke-dasharray:none;stroke-opacity:1"
           d="m 85.448844,144.71606 -0.04925,-2.1169 c -0.04919,-2.1144 2.485673,-2.04173 2.486705,-0.014 l 0.0011,2.16186"
           id="path3032"
           sodipodi:nodetypes="cssc" />
      </g>
    </g>
    <g
       id="venta"
       inkscape:label="venta"
       transform="matrix(0.87682889,0,0,0.87682889,5.4857116,24.584827)"
       style="fill:none;fill-opacity:1">
      <g
         id="g3040"
         transform="rotate(-43.912135,51.748862,76.741917)"
         style="fill:#5e9172;fill-opacity:1;stroke:#000000;stroke-width:0.5;stroke-miterlimit:4;stroke-dasharray:none;stroke-opacity:1">
        <path
           style="fill:#5e9172;fill-opacity:1;stroke:#000000;stroke-width:0.5;stroke-linecap:butt;stroke-linejoin:miter;stroke-miterlimit:4;stroke-dasharray:none;stroke-opacity:1"
           d="m 82.77778,165.36523 7.714849,-0.0154 -0.08571,-17.16915 c -0.02384,-4.77566 -7.654496,-4.99411 -7.613724,0.002 z"
           id="path3036"
           sodipodi:nodetypes="ccssc" />
        <path
           style="fill:#5e9172;fill-opacity:1;stroke:#000000;stroke-width:0.5;stroke-linecap:butt;stroke-linejoin:miter;stroke-miterlimit:4;stroke-dasharray:none;stroke-opacity:1"
           d="m 85.448844,144.71606 -0.04925,-2.1169 c -0.04919,-2.1144 2.485673,-2.04173 2.486705,-0.014 l 0.0011,2.16186"
           id="path3038"
           sodipodi:nodetypes="cssc" />
      </g>
      <g
         id="g3244"
         style="fill:none;fill-opacity:1;stroke:#000000;stroke-width:0.5;stroke-miterlimit:4;stroke-dasharray:none;stroke-opacity:1">
        <path
           d="m 128.08665,120.76952 c -1.52844,0 -2.77195,1.24351 -2.77195,2.77184 0,1.52864 1.24351,2.77235 2.77195,2.77235 1.52833,0 2.77184,-1.24371 2.77184,-2.77235 0,-1.52833 -1.24341,-2.77184 -2.77184,-2.77184 z"
           id="path3146"
           style="fill:none;fill-opacity:1;stroke:#000000;stroke-width:0.5;stroke-miterlimit:4;stroke-dasharray:none;stroke-opacity:1"
           sodipodi:nodetypes="sssss" />
        <path
           d="m 138.00538,120.76952 c -1.52823,0 -2.77154,1.24351 -2.77154,2.77184 0,1.52864 1.24331,2.77235 2.77154,2.77235 1.52854,0 2.77195,-1.24371 2.77195,-2.77235 0,-1.52833 -1.24351,-2.77184 -2.77195,-2.77184 z"
           id="path3148"
           style="fill:none;fill-opacity:1;stroke:#000000;stroke-width:0.5;stroke-miterlimit:4;stroke-dasharray:none;stroke-opacity:1"
           sodipodi:nodetypes="sssss" />
        <path
           style="fill:none;fill-opacity:1;stroke:#000000;stroke-width:0.5;stroke-linecap:round;stroke-linejoin:miter;stroke-miterlimit:4;stroke-dasharray:none;stroke-opacity:1"
           d="m 117.82258,104.03668 4.25677,-0.0415 4.02461,15.21432 13.76028,0.0775 3.22335,-11.43518 -20.00652,-0.0588"
           id="path3210" />
        <path
           style="fill:none;fill-opacity:1;stroke:#000000;stroke-width:0.5;stroke-linecap:butt;stroke-linejoin:miter;stroke-miterlimit:4;stroke-dasharray:none;stroke-opacity:1"
           d="m 130.08577,107.82222 -0.003,11.37804"
           id="path3212" />
        <path
           style="fill:none;fill-opacity:1;stroke:#000000;stroke-width:0.5;stroke-linecap:butt;stroke-linejoin:miter;stroke-miterlimit:4;stroke-dasharray:none;stroke-opacity:1"
           d="m 136.10263,107.90144 -0.0192,11.3561"
           id="path3214" />
        <path
           style="fill:none;fill-opacity:1;stroke:#000000;stroke-width:0.5;stroke-linecap:butt;stroke-linejoin:miter;stroke-miterlimit:4;stroke-dasharray:none;stroke-opacity:1"
           d="m 125.13253,115.54767 15.78549,-0.0354"
           id="path3216" />
        <path
           style="fill:none;fill-opacity:1;stroke:#000000;stroke-width:0.5;stroke-linecap:butt;stroke-linejoin:miter;stroke-miterlimit:4;stroke-dasharray:none;stroke-opacity:1"
           d="m 141.97428,111.70211 -17.84097,0.0703"
           id="path3218" />
      </g>
    </g>
    <g
       id="cliente"
       transform="matrix(1.8447558,0,0,1.8447558,-25.784388,-94.074352)"
       style="display:inline;fill:#5e9172;fill-opacity:1;stroke:#000000;stroke-width:0.271039;stroke-miterlimit:4;stroke-dasharray:none;stroke-opacity:1"
       inkscape:label="cliente">
      <path
         d="m 50.875324,111.82639 c -1.036966,0 -1.880622,0.84365 -1.880622,1.88054 0,1.03711 0.843656,1.8809 1.880622,1.8809 1.036892,0 1.880548,-0.84379 1.880548,-1.8809 0,-1.03689 -0.843588,-1.88054 -1.880548,-1.88054 z"
         id="path3146-3"
         style="display:inline;fill:#5e9172;fill-opacity:1;stroke:#000000;stroke-width:0.271039;stroke-miterlimit:4;stroke-dasharray:none;stroke-opacity:1"
         sodipodi:nodetypes="sssss" />
      <path
         style="display:inline;fill:#5e9172;fill-opacity:1;stroke:#000000;stroke-width:0.271039;stroke-linecap:butt;stroke-linejoin:miter;stroke-miterlimit:4;stroke-dasharray:none;stroke-opacity:1"
         d="m 47.060113,124.3167 7.599939,0.0266 0.02044,-3.67145 c 0.02659,-4.77565 -7.654496,-4.99411 -7.613724,0.002 z"
         id="path3030-6"
         sodipodi:nodetypes="ccssc"
         inkscape:label="path3030-6" />
    </g>
  </g>
</svg>
