<svg preserveAspectRatio="xMidYMid meet" viewBox="0 0 200 200" xmlns="http://www.w3.org/2000/svg" data-type="color" role="img">
  <g
     id="venta"
     inkscape:label="venta"
     transform="matrix(5.7104647,0,0,5.7104647,-640.81732,-541.17805)"
     style="fill:none;fill-opacity:1">
    <g
       id="g3040"
       transform="rotate(-43.912135,51.748862,76.741917)"
       style="fill:#5e9172;fill-opacity:1;stroke:#000000;stroke-width:0.5;stroke-miterlimit:4;stroke-dasharray:none;stroke-opacity:1">
      <path
         style="fill:#5e9172;fill-opacity:1;stroke:#000000;stroke-width:0.5;stroke-linecap:butt;stroke-linejoin:miter;stroke-miterlimit:4;stroke-dasharray:none;stroke-opacity:1"
         d="m 82.77778,165.36523 7.714849,-0.0154 -0.08571,-17.16915 c -0.02384,-4.77566 -7.654496,-4.99411 -7.613724,0.002 z"
         id="path3036"
         sodipodi:nodetypes="ccssc" />
      <path
         style="fill:#5e9172;fill-opacity:1;stroke:#000000;stroke-width:0.5;stroke-linecap:butt;stroke-linejoin:miter;stroke-miterlimit:4;stroke-dasharray:none;stroke-opacity:1"
         d="m 85.448844,144.71606 -0.04925,-2.1169 c -0.04919,-2.1144 2.485673,-2.04173 2.486705,-0.014 l 0.0011,2.16186"
         id="path3038"
         sodipodi:nodetypes="cssc" />
    </g>
    <g
       id="g3244"
       style="fill:none;fill-opacity:1;stroke:#000000;stroke-width:0.5;stroke-miterlimit:4;stroke-dasharray:none;stroke-opacity:1">
      <path
         d="m 128.08665,120.76952 c -1.52844,0 -2.77195,1.24351 -2.77195,2.77184 0,1.52864 1.24351,2.77235 2.77195,2.77235 1.52833,0 2.77184,-1.24371 2.77184,-2.77235 0,-1.52833 -1.24341,-2.77184 -2.77184,-2.77184 z"
         id="path3146"
         style="fill:none;fill-opacity:1;stroke:#000000;stroke-width:0.5;stroke-miterlimit:4;stroke-dasharray:none;stroke-opacity:1"
         sodipodi:nodetypes="sssss" />
      <path
         d="m 138.00538,120.76952 c -1.52823,0 -2.77154,1.24351 -2.77154,2.77184 0,1.52864 1.24331,2.77235 2.77154,2.77235 1.52854,0 2.77195,-1.24371 2.77195,-2.77235 0,-1.52833 -1.24351,-2.77184 -2.77195,-2.77184 z"
         id="path3148"
         style="fill:none;fill-opacity:1;stroke:#000000;stroke-width:0.5;stroke-miterlimit:4;stroke-dasharray:none;stroke-opacity:1"
         sodipodi:nodetypes="sssss" />
      <path
         style="fill:none;fill-opacity:1;stroke:#000000;stroke-width:0.5;stroke-linecap:round;stroke-linejoin:miter;stroke-miterlimit:4;stroke-dasharray:none;stroke-opacity:1"
         d="m 117.82258,104.03668 4.25677,-0.0415 4.02461,15.21432 13.76028,0.0775 3.22335,-11.43518 -20.00652,-0.0588"
         id="path3210" />
      <path
         style="fill:none;fill-opacity:1;stroke:#000000;stroke-width:0.5;stroke-linecap:butt;stroke-linejoin:miter;stroke-miterlimit:4;stroke-dasharray:none;stroke-opacity:1"
         d="m 130.08577,107.82222 -0.003,11.37804"
         id="path3212" />
      <path
         style="fill:none;fill-opacity:1;stroke:#000000;stroke-width:0.5;stroke-linecap:butt;stroke-linejoin:miter;stroke-miterlimit:4;stroke-dasharray:none;stroke-opacity:1"
         d="m 136.10263,107.90144 -0.0192,11.3561"
         id="path3214" />
      <path
         style="fill:none;fill-opacity:1;stroke:#000000;stroke-width:0.5;stroke-linecap:butt;stroke-linejoin:miter;stroke-miterlimit:4;stroke-dasharray:none;stroke-opacity:1"
         d="m 125.13253,115.54767 15.78549,-0.0354"
         id="path3216" />
      <path
         style="fill:none;fill-opacity:1;stroke:#000000;stroke-width:0.5;stroke-linecap:butt;stroke-linejoin:miter;stroke-miterlimit:4;stroke-dasharray:none;stroke-opacity:1"
         d="m 141.97428,111.70211 -17.84097,0.0703"
         id="path3218" />
    </g>
  </g>
</svg>
